<svg width="256" height="256" viewBox="0 0 256 256" fill="none" xmlns="http://www.w3.org/2000/svg">
<rect x="12" y="12" width="232" height="232" rx="13" fill="#6415FF"/>
<path d="M 0 50.342 L 1.855 40.283 A 28.641 28.641 0 0 0 6.872 43.532 A 24.46 24.46 0 0 0 10.01 44.849 A 26.891 26.891 0 0 0 18.701 46.289 A 11.087 11.087 0 0 0 25.073 44.385 Q 27.699 42.604 27.869 39.413 A 8.428 8.428 0 0 0 27.881 38.965 A 4.991 4.991 0 0 0 26.978 36.084 A 4.863 4.863 0 0 0 26.239 35.255 Q 25.459 34.543 24.169 33.816 A 20.951 20.951 0 0 0 23.389 33.399 A 27.449 27.449 0 0 0 21.562 32.561 Q 19.123 31.539 15.381 30.371 Q 9.731 28.585 6.732 26.416 A 14.571 14.571 0 0 1 6.665 26.367 Q 3.662 24.17 2.563 21.484 A 14.805 14.805 0 0 1 1.552 17.321 A 18.12 18.12 0 0 1 1.465 15.527 A 12.586 12.586 0 0 1 2.042 11.847 Q 2.49 10.378 3.286 8.847 A 21.512 21.512 0 0 1 3.394 8.643 A 14.806 14.806 0 0 1 6.871 4.373 A 19.651 19.651 0 0 1 9.448 2.515 Q 12.889 0.418 18.045 0.069 A 31.49 31.49 0 0 1 20.166 0 A 47.28 47.28 0 0 1 24.502 0.189 A 34.571 34.571 0 0 1 28.491 0.781 A 37.003 37.003 0 0 1 33.544 2.25 A 44.7 44.7 0 0 1 36.084 3.272 L 34.424 12.988 A 73.827 73.827 0 0 0 31.352 11.535 Q 29.831 10.86 28.474 10.357 A 35.31 35.31 0 0 0 26.904 9.815 A 21.669 21.669 0 0 0 22.495 8.922 A 27.149 27.149 0 0 0 19.775 8.789 A 10.181 10.181 0 0 0 17.223 9.094 A 7.544 7.544 0 0 0 14.16 10.669 Q 12.453 12.13 12.072 13.811 A 4.441 4.441 0 0 0 11.963 14.795 A 4.961 4.961 0 0 0 12.211 16.387 A 4.387 4.387 0 0 0 12.793 17.529 A 4.19 4.19 0 0 0 13.472 18.259 Q 14.188 18.882 15.372 19.497 A 18.299 18.299 0 0 0 16.089 19.849 Q 18.555 20.996 23.34 22.51 A 42.223 42.223 0 0 1 27.966 24.21 Q 30.229 25.206 32.021 26.382 A 19.2 19.2 0 0 1 34.521 28.32 Q 38.379 31.885 38.379 37.695 A 17.63 17.63 0 0 1 37.671 42.777 A 14.974 14.974 0 0 1 35.718 46.9 Q 33.057 50.83 28.589 53.027 A 21.609 21.609 0 0 1 20.372 55.171 A 25.698 25.698 0 0 1 18.701 55.225 A 42.908 42.908 0 0 1 11.814 54.691 A 36.272 36.272 0 0 1 7.983 53.858 A 34.772 34.772 0 0 1 4.538 52.722 Q 1.892 51.685 0 50.342 Z" fill="white"/>
</svg>